<svg width="28" height="27" viewBox="0 0 28 27" fill="none" xmlns="http://www.w3.org/2000/svg">
<g clip-path="url(#clip0_691_4121)">
<path d="M5.84463 16.7751V16.7973C5.83266 18.0843 4.78943 19.1201 3.49967 19.1201C2.20243 19.1201 1.1546 18.0722 1.1546 16.775C1.1546 15.4778 2.20239 14.43 3.49977 14.43H5.84463V16.7751ZM8.12647 16.775C8.12647 15.4778 9.17427 14.43 10.4715 14.43C11.7688 14.43 12.8166 15.4778 12.8166 16.7751V23.7468C12.8166 25.0441 11.7688 26.092 10.4714 26.092C9.17441 26.092 8.12647 25.0441 8.12647 23.7468V16.7751V16.775Z" fill="#636363" stroke="white" stroke-width="0.887324"/>
<path d="M11.5426 5.1339L11.5427 5.13379H10.4716C9.17437 5.13379 8.12648 4.08596 8.12648 2.78873C8.12648 1.49151 9.17447 0.443662 10.4716 0.443662C11.7688 0.443662 12.8167 1.49149 12.8167 2.78873V5.1339H11.5426ZM10.4716 7.43664C11.7689 7.43664 12.8167 8.48445 12.8167 9.78171C12.8167 11.0789 11.7689 12.1268 10.4715 12.1268H3.47877C2.18142 12.1268 1.1336 11.079 1.1336 9.7816C1.1336 8.48456 2.18142 7.43664 3.47867 7.43664H10.4715H10.4716Z" fill="#636363" stroke="white" stroke-width="0.887324"/>
<path d="M19.8095 9.7816V9.80397C19.7976 11.0909 18.7542 12.1268 17.4644 12.1268C16.1673 12.1268 15.1194 11.079 15.1194 9.7816V2.78883C15.1194 1.49145 16.1673 0.443662 17.4644 0.443662C18.7616 0.443662 19.8095 1.49149 19.8095 2.78873V9.7816ZM22.0913 9.78171C22.0913 9.78167 22.0913 9.78164 22.0913 9.7816C22.0914 8.48437 23.1392 7.43654 24.4363 7.43654C25.7335 7.43654 26.7814 8.48445 26.7814 9.78171C26.7814 11.0789 25.7335 12.1268 24.4363 12.1268H22.0913V9.78171Z" fill="#636363" stroke="white" stroke-width="0.887324"/>
<path d="M17.4644 21.4019C17.4644 21.4019 17.4645 21.4019 17.4645 21.4019C18.7617 21.4019 19.8096 22.4497 19.8096 23.7468C19.8096 25.0441 18.7617 26.092 17.4644 26.092C16.1673 26.092 15.1194 25.0441 15.1194 23.7468V21.4019H17.4644ZM17.4644 19.1201C16.1673 19.1201 15.1194 18.0722 15.1194 16.775C15.1194 15.4778 16.1672 14.43 17.4645 14.43H24.4574C25.7547 14.43 26.8026 15.4778 26.8026 16.7751C26.8026 18.0722 25.7546 19.1201 24.4574 19.1201H17.4645H17.4644Z" fill="#636363" stroke="white" stroke-width="0.887324"/>
</g>
<defs>
<clipPath id="clip0_691_4121">
<rect width="26.6197" height="26.6197" fill="white" transform="translate(0.689941)"/>
</clipPath>
</defs>
</svg>
