<svg width="27" height="27" viewBox="0 0 27 27" fill="none" xmlns="http://www.w3.org/2000/svg">
<path d="M2.77295 19.8337C3.84265 20.4251 11.586 24.8887 17.0921 21.4485C22.5982 18.0083 22.2944 12.0813 22.2944 9.36536C22.7932 8.32043 23.8469 7.7892 23.8469 4.9608C22.8119 5.91689 21.7831 6.24221 20.7607 5.93674C19.7589 4.40942 18.3807 3.73389 16.626 3.91017C13.9939 4.1746 13.0309 6.75691 13.3143 10.0978C9.2559 12.1501 6.07352 8.61003 4.43345 5.93674C3.88547 8.04209 3.35709 10.5697 4.43345 13.3658C5.15103 15.2299 6.87599 16.8058 9.60834 18.0936C6.83928 19.5944 4.56081 20.1744 2.77295 19.8337Z" fill="#636363" stroke="white" stroke-width="1.77465" stroke-linejoin="round"/>
</svg>
