<svg width="27" height="27" viewBox="0 0 27 27" fill="none" xmlns="http://www.w3.org/2000/svg">
<g clip-path="url(#clip0_691_4122)">
<path d="M0.948411 13.1502C0.947787 15.3868 1.53675 17.5706 2.65665 19.4955L0.841309 26.0722L7.62435 24.3075C9.50044 25.3209 11.6025 25.8519 13.7386 25.852H13.7442C20.7958 25.852 26.536 20.1584 26.539 13.1602C26.5404 9.76908 25.2106 6.58028 22.7947 4.18121C20.3791 1.78234 17.1666 0.460532 13.7437 0.458984C6.6912 0.458984 0.951427 6.1523 0.948515 13.1502" fill="#636363"/>
<path d="M0.491633 13.1464C0.490905 15.4635 1.10098 17.7254 2.2608 19.7192L0.380371 26.5317L7.40662 24.7037C9.34259 25.7511 11.5223 26.3033 13.7402 26.3041H13.746C21.0506 26.3041 26.997 20.4057 27.0001 13.157C27.0013 9.64397 25.6238 6.34055 23.1215 3.85553C20.6189 1.37081 17.2915 0.00144448 13.746 0C6.4401 0 0.494649 5.89761 0.491737 13.1464H0.491633ZM4.67592 19.3759L4.41357 18.9626C3.31072 17.2226 2.72863 15.2119 2.72946 13.1473C2.73185 7.12222 7.67355 2.22037 13.7501 2.22037C16.6929 2.22161 19.4584 3.35986 21.5385 5.42506C23.6185 7.49046 24.763 10.236 24.7623 13.1561C24.7596 19.1812 19.8178 24.0836 13.746 24.0836H13.7416C11.7646 24.0826 9.82559 23.5558 8.13461 22.5602L7.7322 22.3234L3.56268 23.4081L4.67592 19.3757V19.3759Z" fill="url(#paint0_linear_691_4122)"/>
<path d="M10.4333 7.64965C10.1852 7.1025 9.92411 7.09146 9.68818 7.08186C9.49497 7.07361 9.27411 7.07423 9.05346 7.07423C8.8326 7.07423 8.47376 7.15667 8.17044 7.48529C7.8668 7.81422 7.01123 8.60909 7.01123 10.2258C7.01123 11.8426 8.19799 13.405 8.36343 13.6244C8.52907 13.8435 10.6545 17.2673 14.0206 18.5845C16.8182 19.6791 17.3875 19.4614 17.9947 19.4065C18.6019 19.3518 19.9541 18.6118 20.23 17.8445C20.5061 17.0773 20.5061 16.4196 20.4233 16.2822C20.3405 16.1453 20.1197 16.063 19.7885 15.8988C19.4572 15.7344 17.829 14.9394 17.5255 14.8298C17.2219 14.7202 17.0011 14.6655 16.7803 14.9945C16.5594 15.323 15.9252 16.063 15.7319 16.2822C15.5388 16.5018 15.3455 16.5292 15.0144 16.3648C14.683 16.1999 13.6165 15.8534 12.3511 14.734C11.3666 13.863 10.7019 12.7874 10.5087 12.4583C10.3155 12.1298 10.488 11.9517 10.6541 11.788C10.8029 11.6407 10.9854 11.4043 11.1511 11.2125C11.3162 11.0206 11.3714 10.8836 11.4818 10.6645C11.5923 10.4451 11.537 10.2532 11.4543 10.0889C11.3714 9.9245 10.7278 8.29946 10.4333 7.64975" fill="white"/>
</g>
<defs>
<linearGradient id="paint0_linear_691_4122" x1="13.6902" y1="26.5317" x2="13.6902" y2="0" gradientUnits="userSpaceOnUse">
<stop stop-color="#F9F9F9"/>
<stop offset="1" stop-color="white"/>
</linearGradient>
<clipPath id="clip0_691_4122">
<rect width="26.6197" height="26.6197" fill="white" transform="translate(0.380371)"/>
</clipPath>
</defs>
</svg>
