<svg width="126" height="220" viewBox="0 0 126 220" fill="none" xmlns="http://www.w3.org/2000/svg">
<path opacity="0.5" d="M187.782 187.782C172.398 203.166 152.798 213.642 131.46 217.886C110.122 222.131 88.0047 219.952 67.9048 211.627C47.8049 203.301 30.6253 189.202 18.5383 171.113C6.45139 153.023 0 131.756 0 110C0 88.244 6.45139 66.9767 18.5383 48.8873C30.6253 30.7979 47.805 16.6989 67.9048 8.37324C88.0047 0.047606 110.122 -2.13076 131.46 2.11363C152.798 6.35801 172.398 16.8345 187.782 32.2183L156.352 63.6478C147.185 54.4802 135.504 48.237 122.789 45.7077C110.073 43.1784 96.8924 44.4765 84.9144 49.438C72.9364 54.3994 62.6985 62.8014 55.4956 73.5813C48.2927 84.3613 44.4481 97.0351 44.4481 110C44.4481 122.965 48.2927 135.639 55.4956 146.419C62.6985 157.199 72.9363 165.601 84.9144 170.562C96.8924 175.523 110.073 176.822 122.789 174.292C135.504 171.763 147.185 165.52 156.352 156.352L187.782 187.782Z" fill="url(#paint0_linear_947_40402)"/>
<defs>
<linearGradient id="paint0_linear_947_40402" x1="220" y1="110" x2="0" y2="110" gradientUnits="userSpaceOnUse">
<stop stop-color="#DC8700"/>
<stop offset="1" stop-color="#FDE0B2"/>
</linearGradient>
</defs>
</svg>
